<svg xmlns="http://www.w3.org/2000/svg" viewBox="0 0 1000 807.3" style="enable-background:new 0 0 1000 807.3" xml:space="preserve"><path d="M0 612.7v140.7h22V626.1h20.3s14.8 0 19.8 6.6c4.3 5.6 5.1 15.8 5.1 22.7 0 7.4-.5 18.7-2.9 22.9-3.7 6.4-9.9 7.6-15.5 7.6H35.3v12.5h19.3s17.4.7 24.9-6.9c9.2-9.3 11.5-21.9 11.5-38.7 0-15.3-5.5-30.7-16.9-35.9-9.4-4.3-26.3-4.3-26.3-4.3H0M108.3 753.3h22V612.7h-22v140.6zM247.1 645.5l40.2 105.3-23.1 56.5h18.2l66.4-161.8h-20.4l-28.9 78.9-26.9-78.9h-25.5M365.4 752.5v-13.3s23.2.9 28.1.9c10.7 0 16.1-2.3 20.1-6.6 2.4-2.6 4.5-14.1 4.5-18.2s-.8-12.9-2.4-16.5c-1.6-3.5-5.4-6.8-11-7.3-4-.3-10.2-1.2-17.4-1.5-10.1-.5-16.8-5.8-20.1-9.6-3.2-3.8-7.5-9.5-7.5-27.1s4.5-27.4 9.1-32c4.6-4.6 11.2-6.6 16.3-7.5 5.9-1 15.5-1.1 15.5-1.1l30.7.9V627s-22.4-.9-27.2-.9c-10.7 0-13.9 2.3-17.9 6.6-2.4 2.6-4.2 9.7-4.2 13.7 0 4.1.5 12.3 2.1 15.9 1.6 3.5 5.4 6.9 11 7.4 4 .3 10.2 1.1 17.4 1.4 10.2.5 16.9 5.8 20.1 9.6 3.2 3.8 7.5 11.9 7.5 29.4 0 17.6-4.6 30.1-9.1 34.7-4.6 4.6-11.2 6.6-16.3 7.5-5.9 1-15.5 1.1-15.5 1.1l-33.8-.9M485.2 626.1h-22v103.3s.5 9.4 1.1 12.7c.5 3.3 5.4 11.2 17.9 11.2l22.7-.4v-13.2s-6.2.4-9.9.4c-3.8 0-8.3-.2-9.1-6.6-.8-6.4-.8-14-.8-14v-60.8H510v-13.2h-24.8v-19.4M697.2 753.3h22V645.5h-22v107.8zM697.2 632.2h22v-19.6h-22v19.6zM788.5 644.5c14.9 0 26.5 3.3 32.8 8.4 6.3 5 14 15.7 14 46.5s-7.7 41.4-14 46.5c-6.2 5-17.8 8.4-32.8 8.4-15 0-26.5-3.4-32.8-8.4-6.3-5.1-14-15.7-14-46.5s7.7-41.4 14-46.5c6.3-5 17.8-8.4 32.8-8.4zm-15 20.7c-3 3.7-6.7 11.5-6.7 34.2 0 22.6 3.7 30.5 6.7 34.2 3 3.7 8.6 6.2 15.7 6.2 7.2 0 12.7-2.5 15.8-6.2 3-3.7 6.7-11.5 6.7-34.2 0-22.6-3.7-30.5-6.7-34.2-3-3.7-8.6-6.2-15.8-6.2-7.2.1-12.7 2.5-15.7 6.2M880.8 660.6l21.5-.9c5.6 0 12.3 1.5 15.5 5.6 3 3.8 4.9 8.4 4.9 15.8v72.1h22v-73.9c0-14-4.3-22.1-10.8-27.2-9.2-7.3-25.7-6.6-25.7-6.6l-49.2.9v106.9h21.8v-92.7M653.4 626.1h-22v103.3s.5 9.4 1 12.7c.6 3.3 5.3 11.2 18 11.2l22.7-.4v-13.2s-6.2.4-9.9.4-8.3-.2-9.1-6.6c-.8-6.4-.8-14-.8-14v-60.8H678v-13.2h-24.7v-19.4M213.6 681.1c0-7.4-1.9-12-4.9-15.8-3.2-4.1-9.8-5.6-15.5-5.6l-29 .9v-14.3l34.9-.9s16.5-.7 25.7 6.6c6.4 5.1 10.7 13.2 10.7 27.2v72.9l-42.1.9s-19.1.1-28.7-3.8c-9.4-3.8-14.5-14.3-14.5-28.8 0-14 4.3-22.1 10.7-27.2 9.2-7.3 25.7-6.6 25.7-6.6H200V699h-7.5c-5.6 0-11.5 1-14.7 5.1-3 3.8-4.6 7.1-4.6 14.5 0 9.7 1.9 14 6.4 17.3 4 2.9 11.2 3.6 19.3 3.6l14.5-.9v-57.5M583.9 681.1c0-7.4-1.8-12-4.9-15.8-3.3-4.1-9.9-5.6-15.5-5.6l-28.9.9v-14.3l34.8-.9s16.5-.7 25.7 6.6c6.4 5.1 10.7 13.2 10.7 27.2v72.9l-42.1.9s-19.1.1-28.7-3.8c-9.4-3.8-14.5-14.3-14.5-28.8 0-14 4.3-22.1 10.7-27.2 9.2-7.3 25.7-6.6 25.7-6.6h13.4V699H563c-5.6 0-11.5 1-14.6 5.1-3 3.8-4.6 7.1-4.6 14.5 0 9.7 1.9 14 6.4 17.3 4 2.9 11.3 3.6 19.3 3.6l14.5-.9v-57.5M978.6 754.2c5.7 0 11.1-2.2 15.2-6.3 4-4.1 6.3-9.5 6.3-15.2 0-5.7-2.2-11.1-6.3-15.2-4.1-4-9.4-6.3-15.2-6.3-11.8 0-21.4 9.6-21.4 21.4 0 5.7 2.2 11.1 6.3 15.2 4 4.2 9.3 6.4 15.1 6.4zm-17.9-21.4c0-4.8 1.9-9.2 5.2-12.6 3.4-3.4 7.8-5.2 12.6-5.2s9.3 1.9 12.6 5.2c3.4 3.4 5.2 7.8 5.2 12.6 0 9.8-8 17.8-17.8 17.8-4.8 0-9.2-1.9-12.6-5.2-3.3-3.4-5.2-7.8-5.2-12.6"/><path d="M989.1 742.7c-.3-.1-.6-.5-.7-1-.1-.4-.2-1-.2-1.8l-.1-3.1c0-1.4-.4-2.5-.9-3.2-.3-.5-.8-.8-1.4-1.2.7-.5 1.4-1 1.8-1.7.6-1 .9-2.2.9-3.6 0-2.8-1.2-4.8-3.5-5.9-1.2-.6-2.7-.8-4.5-.8h-11.1v23.9h4.1v-9.8h6.5c1.2 0 2.1.1 2.6.3.8.4 1.3 1.3 1.4 2.6l.2 3.8c0 .9.1 1.5.2 1.9.1.4.2.7.3.9l.2.3h4.6v-1.4l-.4-.2zm-4.7-15.3c0 1.3-.3 2.2-1 2.7-.8.5-1.8.8-3.1.8h-6.6v-6.8h7c.9 0 1.7.1 2.3.4.9.5 1.4 1.5 1.4 2.9"/><g><path d="m641.1 429.3-.5 443.5-118.8-38.6V312.9L673.5 353c97 26.1 156.5 76.8 155.5 165.7-1 103.4-48.8 144.9-142 117.9V432.7c0-24.7-45.9-26.1-45.9-3.4z" style="fill-rule:evenodd;clip-rule:evenodd;fill:#de0029" transform="translate(-61.686 -312.868)"/><path d="m467.2 748.1-56 18.8c-36.2 12.6-67.1-16.9-33.8-29l27-9.7L302.5 696c-31.4 10.6-60.9 33.3-58.9 65.2 1.9 32.4 75.8 40.1 132.8 49.3 53.1 8.7 101.4 3.9 145.4-11.6v-33.3l-54.6-17.5zm174.4 124.7 103.9-36.2-104.8-33.3v67.1l.9 2.4z" style="fill-rule:evenodd;clip-rule:evenodd;fill:#f3c202" transform="translate(-61.686 -312.868)"/><path d="m917.9 775.7 1.9-.5c45.4-15.9 64.7-38.2 59.9-58.9-7.7-34.8-63.3-53.6-148.8-59.9-61.3-4.3-121.7 9.2-180.7 29.5l-9.7 3.4 105.8 32.9 61.8-20.8c64.7-12.1 90.8 9.2 28.5 29L805.7 741l112.2 34.7zM521.8 622.1 474.9 638l46.9 14.5v-30.4z" style="fill-rule:evenodd;clip-rule:evenodd;fill:#326db3" transform="translate(-61.686 -312.868)"/><path d="m745.4 836.6 172.4-60.9-112.1-34.8-165.2 56.5v5.8l104.9 33.4zM521.8 729.8l-54.6 18.4 54.6 17.4v-35.8zm118.8 28.5v-69.1l105.8 32.9-105.8 36.2zm-236.2-30 117.4-42v-33.8L474.9 638l-170 57.5c-.5 0-1.4.5-2.4.5l101.9 32.3z" style="fill-rule:evenodd;clip-rule:evenodd;fill:#00aa9e" transform="translate(-61.686 -312.868)"/></g></svg>